<?xml version="1.0" standalone="no"?><!DOCTYPE svg PUBLIC "-//W3C//DTD SVG 1.1//EN" "http://www.w3.org/Graphics/SVG/1.1/DTD/svg11.dtd"><svg t="1652768843145" class="icon" viewBox="0 0 1024 1024" version="1.1" xmlns="http://www.w3.org/2000/svg" p-id="2740" xmlns:xlink="http://www.w3.org/1999/xlink" width="200" height="200"><defs><style type="text/css"></style></defs><path d="M836.3571418 311.83865703h-32.03626553a17.64607324 17.64607324 0 0 1-17.64607325-17.65612266V179.7141834A117.7141834 117.7141834 0 0 0 668.96061875 62.05024531H204.55535322A117.7141834 117.7141834 0 0 0 86.84116982 179.7141834v664.56158379a117.72423281 117.72423281 0 0 0 117.7141834 117.72423281h614.87924415a117.72423281 117.72423281 0 0 0 117.72423281-117.72423281V411.9168166c-0.72352881-55.43037685-45.36126211-100.07815869-100.80168838-100.07815957z m-333.10481133-88.56198545c7.1950957-0.72352881 12.95318232 4.32107754 14.4002417 10.80269297l10.04901679 69.84066797 9.25514473-25.70538515c9.61690958-26.72033555 47.42131026-26.6600417 56.95782715 0.0904412l9.38578184 26.32842422 10.0490168-69.83061855a12.73210401 12.73210401 0 1 1 25.20293466 3.59754785l-17.28430927 120.23648702c-1.43700908 5.75808662-5.75808662 10.0490168-11.52622266 10.80269296h-1.43700908a12.33014326 12.33014326 0 0 1-11.51617324-8.6421542l-14.09877071-39.48258779c-5.60735156-15.64631894-27.7654333-15.56592715-33.25219717 0.12058857l-13.78725117 39.3921457c-2.16053877 5.75808662-7.20514511 9.36568388-12.96323173 8.64215508s-10.80269297-5.02450839-12.95318233-11.52622266l-17.28430928-120.236487c-0.72352881-7.22524307 4.32107754-13.70685937 10.80269297-14.43038819z m-139.68133419 14.4002417a12.12916377 12.12916377 0 0 1 12.22965352-12.23970292h79.58821377a12.4406833 12.4406833 0 0 1 12.19950615 9.29534062 12.19950615 12.19950615 0 0 1-11.85783925 15.23430967h-50.0441045a17.63602471 17.63602471 0 0 0-17.62597529 17.58577939 17.64607324 17.64607324 0 0 0 17.63602471 17.64607412h49.69238818a12.4406833 12.4406833 0 0 1 12.19950615 9.26519326 12.18945761 12.18945761 0 0 1-11.87793808 15.21421172h-50.04410361a17.63602471 17.63602471 0 0 0-17.60587735 17.66617119 17.64607324 17.64607324 0 0 0 17.63602471 17.64607412h50.04410362a12.23970292 12.23970292 0 1 1 0 24.47940498h-79.93992921c-6.4715669 0-12.22965352-5.75808662-12.22965352-11.52622266z m-150.48402802-1.43700996a12.40048653 12.40048653 0 0 1 5.7580875-10.04901679c5.75808662-3.60759727 13.67671201-2.16053877 17.2843084 3.59754784l24.5396997 36.9703336c9.66715401 14.56102529 32.33773653 7.71764502 32.33773565-9.74754668V236.95338359a12.23970292 12.23970292 0 0 1 24.47940586 0v119.53305615c0 5.75808662-3.59754786 10.80269297-8.64215508 12.23970206a6.44141953 6.44141953 0 0 1-3.59754785 0.72352968 12.41053594 12.41053594 0 0 1-10.04901679-5.75808661l-24.53969971-36.98038214c-9.66715401-14.55097675-32.33773653-7.7075956-32.33773565 9.75759522v20.72107265a12.13921231 12.13921231 0 0 1-12.23970292 12.24975148c-7.20514511 0-12.24975146-5.75808662-12.96323174-12.96323175zM626.37288594 812.23950166H226.0502a25.20293467 25.20293467 0 0 1 0-50.40586846H626.37288594a25.20293467 25.20293467 0 0 1 0 50.40586846z m0-124.55756455H226.0502a25.20293467 25.20293467 0 1 1 0-50.40586846H626.37288594a25.20293467 25.20293467 0 0 1 0 50.40586846z m0-125.28109336H226.0502a25.20293467 25.20293467 0 0 1 0-50.40586846H626.37288594c13.67671201 0 24.46935644 11.51617324 25.19288525 25.20293468a25.5144542 25.5144542 0 0 1-25.19288525 25.20293378z m260.39012432 345.68618115a3.52720459 3.52720459 0 0 1-3.51715518 3.50710664h-94.92301406a0.92450918 0.92450918 0 0 1-0.92450918-0.91446064V363.15898701a0.92450918 0.92450918 0 0 1 0.92450918-0.92451006h94.92301406a3.52720459 3.52720459 0 0 1 3.51715518 3.51715606z" p-id="2741" fill="#1296db"></path></svg>